<?xml version="1.0" encoding="UTF-8" standalone="no"?>
<svg width="61px" height="36px" viewBox="0 0 61 36" version="1.1" xmlns="http://www.w3.org/2000/svg" xmlns:xlink="http://www.w3.org/1999/xlink">
    <g fill="#ffffff">
        <path d="M19.4768435,30.2248776 L10.5276871,30.2248776 C9.9342857,30.0211293 9.808966,29.4169388 9.7878027,29.084551 L9.7878027,28.8343265 L9.7878027,28.8135782 L9.7878027,27.0636667 L9.7878027,5.0430816 L15.2151429,5.0430816 L15.2151429,13.1365782 L15.2400408,13.0589796 L15.2400408,13.1228844 C16.2816054,12.773068 17.4248367,12.5979524 18.6228435,12.5979524 C23.4978639,12.5979524 27.4574694,16.5538231 27.4574694,21.4317483 C27.4574694,26.0216871 23.9518367,29.7949728 19.4768435,30.2248776 L19.4768435,30.2248776 L19.4768435,30.2248776 Z M8.5321156,0 C3.8201769,0 -3.55271368e-15,3.8197619 -3.55271368e-15,8.5341905 L-3.55271368e-15,35.3783401 L26.8429048,35.3783401 C31.5573333,35.3783401 35.3779252,31.5585782 35.3779252,26.8441497 L35.3779252,0 L8.5321156,0 L8.5321156,0 Z M18.8307415,17.885034 C16.8584082,17.885034 15.2549796,19.0502585 15.2591293,21.4562313 C15.2591293,21.5238707 15.2653537,21.5890204 15.2682585,21.6529252 L15.2682585,25.0282585 L18.9299184,25.0282585 L18.9299184,25.0232789 C20.8545306,24.9693333 22.4015238,23.3966122 22.4015238,21.4562313 C22.4015238,19.483483 20.8018299,17.885034 18.8307415,17.885034 L18.8307415,17.885034 L18.8307415,17.885034 Z"></path>
        <path d="M56.7153932,16.4410354 L53.8579374,24.8868381 L53.8098014,24.8868381 L50.7216245,16.4410354 L46.6615973,16.4410354 L51.6992844,28.8783959 L55.6854476,28.8783959 L60.5019578,16.4410354 L56.7153932,16.4410354 L56.7153932,16.4410354 Z M42.6746041,12.7793755 L38.9108626,12.7793755 L38.9108626,25.192668 C38.9108626,27.852185 40.8421143,28.8783959 43.3505837,28.8783959 C44.2282367,28.8783959 45.1565156,28.8016272 45.9847878,28.5024367 L45.9847878,25.3673687 C45.6557197,25.669049 44.8560803,25.7205048 44.4556381,25.7205048 C42.8235769,25.7205048 42.6746041,24.766498 42.6746041,23.461015 L42.6746041,19.4001578 L45.9847878,19.4001578 L45.9847878,16.3904095 L42.6746041,16.3904095 L42.6746041,12.7793755 L42.6746041,12.7793755 Z"></path>
    </g>
</svg>