<?xml version="1.0" encoding="utf-8"?>
<svg version="1.1" id="Layer_1" xmlns="http://www.w3.org/2000/svg" xmlns:xlink="http://www.w3.org/1999/xlink" x="0px" y="0px"
	 viewBox="0 0 43.5 20" style="enable-background:new 0 0 43.5 20;" xml:space="preserve">
<style type="text/css">
	.st0{fill:#FFFFFF;}
</style>
<g>
	<path class="st0" d="M1.4,1.4C0.5,2.3,0,3.5,0,4.8V20h15.2c2.7,0,4.8-2.2,4.8-4.8V0H4.8C3.6,0,2.3,0.5,1.4,1.4z M5.5,2.8h3.1v4.6
		l0,0v0c0.6-0.2,1.3-0.3,1.9-0.3c2.8,0,5,2.2,5,5c0,1.3-0.5,2.5-1.3,3.4c-0.8,0.9-2,1.5-3.2,1.6H6c-0.3-0.1-0.4-0.4-0.4-0.6V2.8z"/>
	<path class="st0" d="M12.1,13.5c0.4-0.4,0.6-0.9,0.6-1.4c0-1.1-0.9-2-2-2c-1-0.1-1.9,0.7-2,1.7c0,0.1,0,0.2,0,0.3v2h2.1
		C11.2,14.1,11.7,13.9,12.1,13.5z"/>
	<polygon class="st0" points="10.7,10.1 10.7,10.1 10.7,10.1 	"/>
	<path class="st0" d="M42.6,12.5c-0.2,0-0.4,0-0.6,0c-0.4,0-0.9,0-1.4,0c0-0.1,0-0.2,0-0.2c0-0.5,0-1.1,0-1.6c0-0.6-0.4-1-0.9-1
		c-0.5,0-0.9,0.4-0.9,1c0,0.5,0,1.1,0,1.6c0,0.1,0,0.1,0,0.2c-0.7,0-1.3,0-1.9,0c-0.5,0-0.9,0.4-0.9,0.9c0,0.5,0.4,0.9,0.9,0.9
		c0.6,0,1.1,0,1.7,0c0.1,0,0.1,0,0.2,0c0,0.1,0,0.2,0,0.2c0,0.6,0,1.1,0,1.7c0,0.5,0.4,0.9,0.8,0.9c0.5,0,0.9-0.3,1-0.7
		c0-0.1,0-0.2,0-0.3c0-0.6,0-1.2,0-1.8c0.7,0,1.3,0,1.9,0c0.5,0,0.9-0.4,0.9-0.9C43.5,12.9,43.1,12.5,42.6,12.5z"/>
	<path class="st0" d="M24.4,14.8c-0.1-0.3-0.2-0.6-0.2-1v-2.5h2V9.6h-2V7.4H22v7.5c-0.1,0.7,0.2,1.3,0.8,1.7
		c0.6,0.4,1.2,0.6,1.9,0.5c0.5,0,1.1-0.1,1.6-0.2V15c-0.3,0.2-0.6,0.3-0.9,0.2C25,15.3,24.6,15.1,24.4,14.8z"/>
	<polygon class="st0" points="31,14.7 31,14.7 29.1,9.6 26.7,9.6 29.7,17.1 32.2,17.1 35.1,9.6 32.8,9.6 	"/>
</g>
</svg>
