<?xml version="1.0" encoding="utf-8"?>
<!DOCTYPE svg PUBLIC "-//W3C//DTD SVG 1.1//EN" "http://www.w3.org/Graphics/SVG/1.1/DTD/svg11.dtd">
<svg version="1.1" id="Layer_1" xmlns="http://www.w3.org/2000/svg" xmlns:xlink="http://www.w3.org/1999/xlink" x="0px" y="0px"
	 width="102px" height="70px" viewBox="0 0 1000 501" enable-background="new 0 0 1000 501" xml:space="preserve">
<circle fill="#FFFFFF" cx="251.777" cy="250.762" r="245.574"/>
<g>
	<path fill="#00B3DE" d="M812.396,175.651H826l61.717,144.599h-35.449l-33-81.44l-32.926,81.44h-35.916L812.396,175.651z
		 M688.67,284.908V175.651h-35.373V320.25h35.373h50.633v-35.342H688.67z M952.492,175.074l-25.586,51.248l-0.07-1.081
		l-25.842-50.167h-35.336l42.967,87.847v57.329h35.303v-57.329l43.871-87.847H952.492z M641.816,229.274
		c0,28.752-23.248,52.108-52.037,52.108h-17.061v38.867h-34.906V177.269h34.906h17.061
		C618.568,177.269,641.816,200.556,641.816,229.274z M607.053,230.533c0-10.403-8.674-18.893-19.002-18.893h-15.332v37.567h15.332
		v0.074C598.379,249.282,607.053,240.823,607.053,230.533z"/>
	<path id="circle_2_" fill="#00B3DE" d="M484.261,329.282c-32.818,97.021-124.583,166.8-232.653,166.8
		c-108.435,0-200.522-70.427-232.985-168.025h19.474v-87.628l45.267,87.702H138.5v-69.638c3.995,39.049,37.064,69.563,77.153,69.563
		c42.826,0,77.517-34.801,77.517-77.589c0-6.477-0.792-12.702-2.195-18.639l47.542,96.228h9.604l76.693-155.106h-38.507
		l-43.257,87.343l-43.399-87.343h-38.004l14.539,29.042c-14.253-17.74-36.063-29.042-60.533-29.042
		c-40.089,0-73.158,30.483-77.153,69.527v-69.527h-37.898v117.142L42.52,172.951H18.623l0,0C51.122,75.284,143.173,5,251.608,5
		C387.279,5,497.15,114.905,497.15,250.54c0,8.531-0.436,17.021-1.299,25.374l0,0l-51.102-102.963h-9.499l-76.653,155.106h38.432
		l43.257-87.446L484.261,329.282L484.261,329.282z M255.458,250.468c0-22.024-17.812-39.836-39.804-39.836
		c-22.057,0-39.876,17.812-39.876,39.836c0,22.025,17.819,39.875,39.876,39.875C237.646,290.343,255.458,272.493,255.458,250.468z"
		/>
</g>
</svg>